#!OML:ASF X:\für Bonn\!DataBase\2005_08_12_Daniel\c3d\Daniel.ASF
:FULLY-SPECIFIED
:DEGREES
97
root 0.94071 7.38307 -0.724359 55.939 -88.6336 -85.0807
lowerback 61.9086 -4.00017 5.44917
upperback 4.80995 -3.65521 -2.54641
thorax -16.7323 -2.50158 -3.19397
lowerneck 11.9659 2.17545 -1.77105
upperneck -7.80792 2.56326 -0.561696
head -4.29926 1.3492 -0.0698238
rclavicle -2.18663e-015 8.74653e-015
rhumerus 67.9286 -1.39792 -103.523
rradius 9.21619
rwrist 68.2676
rhand -24.1593 14.4793
rfingers 7.12502
rthumb 2.32355 -15.4878
lclavicle -2.18663e-015 8.74653e-015
lhumerus 67.2873 11.0253 112.181
lradius 10.1544
lwrist -88.92
lhand -22.4114 -2.99651
lfingers 7.12502
lthumb 4.01149 26.9455
rfemur 17.2025 -63.2121 -114.01
rtibia 149.467
rfoot -46.7573 64.8206
rtoes -12.6247
lfemur -22.609 69.4348 71.951
ltibia 148.126
lfoot -31.2678 -62.1306
ltoes 0.541803
98
root 0.959141 7.51058 -0.724167 54.2596 -88.6128 -82.8345
lowerback 61.7014 -4.02864 5.47083
upperback 4.74083 -3.6546 -2.53294
thorax -16.8114 -2.49422 -3.19174
lowerneck 11.6423 2.14907 -1.69649
upperneck -7.6131 2.5402 -0.642849
head -4.1844 1.3391 -0.0999606
rclavicle -2.5842e-015 1.43125e-014
rhumerus 67.8294 -1.44061 -103.569
rradius 8.90677
rwrist 68.7276
rhand -24.4151 14.3403
rfingers 7.12502
rthumb 2.07651 -15.6293
lclavicle -2.5842e-015 1.43125e-014
lhumerus 67.1708 11.0657 112.11
lradius 10.0595
lwrist -89.2336
lhand -22.3743 -2.92765
lfingers 7.12502
lthumb 4.04737 27.0137
rfemur 15.1631 -64.4599 -109.712
rtibia 148.604
rfoot -44.2706 63.504
rtoes -12.9753
lfemur -26.7403 69.1837 65.8316
ltibia 147.294
lfoot -30.6386 -60.4257
ltoes 0.312559
99
root 0.976864 7.64806 -0.723733 52.0915 -88.5598 -80.0903
lowerback 61.4646 -4.07059 5.50593
upperback 4.66384 -3.655 -2.49852
thorax -16.8967 -2.48747 -3.17084
lowerneck 11.4189 2.12039 -1.61069
upperneck -7.09641 2.50986 -0.768421
head -4.43221 1.32483 -0.157473
rclavicle -3.18055e-015 1.59028e-015
rhumerus 67.6887 -1.47787 -103.593
rradius 8.66243
rwrist 69.0266
rhand -24.557 14.2303
rfingers 7.12502
rthumb 1.93942 -15.7407
lclavicle -3.18055e-015 1.59028e-015
lhumerus 67.0936 11.0857 112.035
lradius 9.91311
lwrist -89.4255
lhand -22.4207 -2.92511
lfingers 7.12502
lthumb 4.00255 27.017
rfemur 12.2173 -65.6598 -104.418
rtibia 147.649
rfoot -41.4398 62.228
rtoes -13.1251
lfemur -31.406 68.6119 59.1402
ltibia 146.387
lfoot -29.8281 -58.6347
ltoes 0.0331418
100
root 0.99447 7.79182 -0.723544 49.2509 -88.5086 -76.6287
lowerback 61.1608 -4.10964 5.52607
upperback 4.57395 -3.66115 -2.46973
thorax -16.9967 -2.48055 -3.14843
lowerneck 11.4418 2.1 -1.54131
upperneck -7.11939 2.48464 -0.84945
head -4.44277 1.31484 -0.19601
rclavicle -3.97569e-015 1.27222e-014
rhumerus 67.4365 -1.52767 -103.629
rradius 8.54846
rwrist 69.1375
rhand -24.6111 14.1864
rfingers 7.12502
rthumb 1.88716 -15.785
lclavicle -3.97569e-015 1.27222e-014
lhumerus 67.0214 11.1082 111.943
lradius 9.70828
lwrist -89.4969
lhand -22.6025 -2.91448
lfingers 7.12502
lthumb 3.82696 27.0309
rfemur 8.19744 -66.806 -98.0347
rtibia 146.652
rfoot -38.5663 60.8479
rtoes -13.3434
lfemur -36.4893 67.696 51.9733
ltibia 145.412
lfoot -28.7854 -56.7315
ltoes -0.0420392
101
root 1.01125 7.94164 -0.723636 47.0021 -88.457 -73.7665
lowerback 60.8424 -4.14687 5.55561
upperback 4.48615 -3.66227 -2.44998
thorax -17.0931 -2.47202 -3.1438
lowerneck 11.5169 2.0828 -1.48137
upperneck -7.16658 2.46125 -0.926754
head -4.47313 1.30604 -0.232696
rclavicle -1.07344e-014 -1.11319e-014
rhumerus 67.1168 -1.60491 -103.667
rradius 8.56194
rwrist 69.1111
rhand -24.5569 14.1528
rfingers 7.12502
rthumb 1.93949 -15.8181
lclavicle -1.07344e-014 -1.11319e-014
lhumerus 66.9524 11.1137 111.844
lradius 9.48017
lwrist -89.4845
lhand -22.8903 -2.98887
lfingers 7.12502
lthumb 3.54899 26.9613
rfemur 2.65591 -67.7408 -90.1176
rtibia 145.569
rfoot -34.8482 59.6222
rtoes -13.1441
lfemur -41.0532 66.4721 45.3483
ltibia 144.395
lfoot -27.9517 -54.7697
ltoes -0.33754
102
root 1.02641 8.09701 -0.724023 45.3544 -88.3961 -71.4934
lowerback 60.4824 -4.16546 5.56818
upperback 4.40542 -3.64913 -2.40312
thorax -17.1743 -2.45721 -3.10865
lowerneck 11.621 2.06586 -1.48008
upperneck -7.24232 2.43074 -0.976207
head -4.52134 1.2942 -0.249582
rclavicle 6.55989e-015 1.78906e-014
rhumerus 66.7586 -1.68382 -103.674
rradius 8.66906
rwrist 68.9559
rhand -24.5219 14.1788
rfingers 7.12502
rthumb 1.97333 -15.7919
lclavicle 6.55989e-015 1.78906e-014
lhumerus 66.9307 11.1345 111.773
lradius 9.22467
lwrist -89.4707
lhand -23.2582 -3.09612
lfingers 7.12502
lthumb 3.19371 26.8597
rfemur -4.12125 -68.281 -80.9529
rtibia 144.425
rfoot -30.9233 58.3505
rtoes -12.769
lfemur -45.135 64.9452 39.2307
ltibia 143.314
lfoot -27.0581 -52.8315
ltoes -0.444605
103
root 1.04136 8.25743 -0.723939 43.3936 -88.3166 -68.8852
lowerback 60.1105 -4.21167 5.61829
upperback 4.30116 -3.64543 -2.37963
thorax -17.2859 -2.44673 -3.11256
lowerneck 11.6914 2.05246 -1.47399
upperneck -7.60828 2.40784 -1.00117
head -4.18324 1.28793 -0.237043
rclavicle 6.55989e-015 2.78299e-015
rhumerus 66.362 -1.77416 -103.71
rradius 8.84208
rwrist 68.7027
rhand -24.4345 14.2308
rfingers 7.12502
rthumb 2.05777 -15.739
lclavicle 6.55989e-015 2.78299e-015
lhumerus 66.8857 11.1156 111.681
lradius 8.98637
lwrist -89.4629
lhand -23.674 -3.21676
lfingers 7.12502
lthumb 2.79215 26.7447
rfemur -11.7339 -68.3331 -70.9587
rtibia 143.26
rfoot -27.4427 56.7043
rtoes -12.6522
lfemur -48.9139 63.1089 33.4448
ltibia 142.206
lfoot -26.2335 -50.7545
ltoes -0.666492
104
root 1.05448 8.42305 -0.723622 42.0146 -88.2496 -66.8501
lowerback 59.7008 -4.23591 5.63441
upperback 4.22494 -3.64064 -2.33852
thorax -17.3575 -2.43505 -3.08287
lowerneck 11.7237 2.04826 -1.46937
upperneck -7.65359 2.39732 -1.04418
head -4.20185 1.28543 -0.250965
rclavicle 1.15295e-014 2.8625e-014
rhumerus 66.0488 -1.82234 -103.738
rradius 8.98772
rwrist 68.5662
rhand -24.4567 14.2501
rfingers 7.12502
rthumb 2.03626 -15.7199
lclavicle 1.15295e-014 2.8625e-014
lhumerus 66.9286 11.0916 111.619
lradius 8.78406
lwrist -89.5413
lhand -24.0495 -3.33963
lfingers 7.12502
lthumb 2.42953 26.6263
rfemur -19.7918 -67.7626 -60.522
rtibia 142.05
rfoot -24.2844 54.7869
rtoes -12.4499
lfemur -52.0036 61.0591 28.3624
ltibia 141.045
lfoot -25.5276 -48.6502
ltoes -0.800628
105
root 1.06648 8.59233 -0.723362 41.0174 -88.155 -65.2081
lowerback 59.3238 -4.26081 5.66605
upperback 4.10605 -3.61525 -2.27416
thorax -17.4784 -2.41562 -3.04287
lowerneck 11.8076 2.04108 -1.5016
upperneck -7.66665 2.37814 -1.06511
head -4.21969 1.27832 -0.251922
rclavicle 0 -8.34896e-015
rhumerus 65.7279 -1.8726 -103.741
rradius 9.12921
rwrist 68.4584
rhand -24.4458 14.2937
rfingers 7.12502
rthumb 2.04679 -15.6762
lclavicle 0 -8.34896e-015
lhumerus 66.9268 11.0716 111.581
lradius 8.63359
lwrist -89.7062
lhand -24.3634 -3.45553
lfingers 7.12502
lthumb 2.12636 26.5136
rfemur -27.3837 -66.541 -50.5466
rtibia 140.817
rfoot -21.8684 52.5578
rtoes -12.5192
lfemur -54.5035 58.8548 23.9411
ltibia 139.837
lfoot -24.7709 -46.584
ltoes -0.914535
106
root 1.07667 8.7656 -0.722778 40.7004 -88.0606 -64.2413
lowerback 58.92 -4.29784 5.72627
upperback 3.99398 -3.59478 -2.23863
thorax -17.591 -2.39957 -3.04748
lowerneck 11.9108 2.03307 -1.48891
upperneck -7.70906 2.36413 -1.08991
head -4.2491 1.27293 -0.262076
rclavicle 4.57205e-015 1.47101e-014
rhumerus 65.4526 -1.93229 -103.786
rradius 9.25699
rwrist 68.3781
rhand -24.471 14.2657
rfingers 7.12502
rthumb 2.0225 -15.7044
lclavicle 4.57205e-015 1.47101e-014
lhumerus 66.8866 11.0362 111.503
lradius 8.64448
lwrist -90.0495
lhand -24.5298 -3.53355
lfingers 7.12502
lthumb 1.96566 26.4371
rfemur -34.0974 -64.7325 -41.495
rtibia 139.554
rfoot -19.602 50.2544
rtoes -12.4491
lfemur -56.4728 56.5648 20.1244
ltibia 138.6
lfoot -24.145 -44.5077
ltoes -0.966667
107
root 1.08604 8.94089 -0.721551 39.6608 -87.975 -62.5636
lowerback 58.5125 -4.32497 5.77245
upperback 3.88176 -3.57046 -2.19351
thorax -17.7007 -2.38143 -3.03723
lowerneck 11.9784 2.02645 -1.52869
upperneck -7.70906 2.35013 -1.06139
head -4.26092 1.26563 -0.246683
rclavicle 1.39149e-015 5.1684e-015
rhumerus 65.2496 -1.99103 -103.807
rradius 9.31692
rwrist 68.4196
rhand -24.5273 14.219
rfingers 7.12502
rthumb 1.96808 -15.7517
lclavicle 1.39149e-015 5.1684e-015
lhumerus 66.8215 11.0122 111.444
lradius 8.75964
lwrist -90.4695
lhand -24.6056 -3.58565
lfingers 7.12502
lthumb 1.89247 26.3857
rfemur -39.7798 -62.4298 -33.5752
rtibia 138.264
rfoot -17.734 47.7622
rtoes -12.5497
lfemur -58.0055 54.2258 16.7504
ltibia 137.321
lfoot -23.5772 -42.4686
ltoes -0.959428
108
root 1.09198 9.11851 -0.720525 39.5713 -87.8964 -61.86
lowerback 58.0806 -4.33605 5.80343
upperback 3.78825 -3.53985 -2.13836
thorax -17.7822 -2.36077 -3.01289
lowerneck 12.0388 2.02784 -1.59918
upperneck -7.73795 2.34188 -1.03026
head -4.28089 1.26211 -0.226084
rclavicle -3.57812e-015 5.96354e-015
rhumerus 65.1051 -2.02293 -103.834
rradius 9.33843
rwrist 68.5204
rhand -24.5647 14.1362
rfingers 7.12502
rthumb 1.93194 -15.8348
lclavicle -3.57812e-015 5.96354e-015
lhumerus 66.7747 10.9894 111.393
lradius 8.96697
lwrist -90.9258
lhand -24.5535 -3.5917
lfingers 7.12502
lthumb 1.94278 26.3792
rfemur -44.0633 -59.8596 -27.1056
rtibia 136.947
rfoot -16.1702 45.3025
rtoes -12.5124
lfemur -59.0446 51.9346 13.964
ltibia 136.019
lfoot -23.0915 -40.5315
ltoes -0.983056
109
root 1.09679 9.29835 -0.718843 39.2957 -87.8087 -60.9908
lowerback 57.6377 -4.3599 5.85953
upperback 3.69841 -3.51313 -2.09678
thorax -17.8577 -2.3431 -3.01408
lowerneck 11.9814 2.02868 -1.64647
upperneck -7.64657 2.34318 -0.974782
head -4.24463 1.26014 -0.200217
rclavicle -2.78299e-015 6.75868e-015
rhumerus 65.0117 -2.03951 -103.885
rradius 9.31705
rwrist 68.6462
rhand -24.56 14.0113
rfingers 7.12502
rthumb 1.93651 -15.9597
lclavicle -2.78299e-015 6.75868e-015
lhumerus 66.728 10.938 111.335
lradius 9.14084
lwrist -91.2126
lhand -24.5341 -3.61501
lfingers 7.12502
lthumb 1.96153 26.3557
rfemur -47.3934 -57.0816 -21.6648
rtibia 135.609
rfoot -14.8322 42.8159
rtoes -12.5613
lfemur -59.783 49.6904 11.5304
ltibia 134.688
lfoot -22.6354 -38.6722
ltoes -0.888784
